# xmcd
#
# Track frame offsets:
#	182
#	13950
#	31047
#	44185
#	59305
#	73700
#	83320
#	95247
#	107445
#	123392
#	134372
#	147177
#	164335
#	176850
#	189512
#	204555
#	220587
#	232992
#	245967
#	259902
#	272822
#
# Disc length: 3868 seconds
#
# Revision: 2
# Processed by: cddbd v1.5.2PL0 Copyright (c) Steve Scherf et al.
# Submitted via: audiograbber 1.83.01
#
DISCID=3a0f1a15
DTITLE=Various Artist - Heart and soul of country disc 4 of 6
DYEAR=1992
DGENRE=Country
TTITLE0=Glen Campbell - Southern Nights
TTITLE1=Glen Campbell - If you could read my mind
TTITLE2=Glen Campbell - Sunflower
TTITLE3=Glen Campbell - Your cheatin' heart
TTITLE4=Glen Campbell - She thinks I still care
TTITLE5=Glen Campbell with Bobbie Gentry - Let it be me
TTITLE6=Glen Campbell - Take these chains from my heart
TTITLE7=Dolly Parton - Jolene
TTITLE8=Dolly Parton - Release me
TTITLE9=Dolly Parton - Games people play
TTITLE10=Dolly Parton - In the ghetto
TTITLE11=Dolly Parton - Save the last dance for me
TTITLE12=Dolly Parton - Elusive butterfly
TTITLE13=Dolly Parton - Nine to five
TTITLE14=Dolly Parton - Downtown
TTITLE15=Dolly Parton - Heartbreaker
TTITLE16=Dolly Parton - The bargain store
TTITLE17=Dolly Parton - (Your love has lifted me) Higher and higher
TTITLE18=Dolly Parton - The seeker
TTITLE19=Dolly Parton - I can't help myself
TTITLE20=Dolly Parton - Great balls of fire
EXTD=
EXTT0=
EXTT1=
EXTT2=
EXTT3=
EXTT4=
EXTT5=
EXTT6=
EXTT7=
EXTT8=
EXTT9=
EXTT10=
EXTT11=
EXTT12=
EXTT13=
EXTT14=
EXTT15=
EXTT16=
EXTT17=
EXTT18=
EXTT19=
EXTT20=
PLAYORDER=
